<?xml version="1.0" encoding="UTF-8"?>
<svg xmlns="http://www.w3.org/2000/svg" xmlns:xlink="http://www.w3.org/1999/xlink" x="0" y="0" width="28px" height="28px" viewBox="0 0 24 24" version="1.1" fill="none" xml:space="preserve">
<g id="surface1" fill="currentColor">
<path style=" stroke:none;fill-rule:nonzero;fill:rgb(0%,0%,0%);fill-opacity:1;" d="M 13.84375 12.738281 L 16.671875 12.738281 C 16.992188 14.1875 18.28125 15.28125 19.828125 15.28125 C 21.609375 15.28125 23.054688 13.832031 23.054688 12.050781 C 23.054688 10.269531 21.609375 8.820312 19.828125 8.820312 C 18.320312 8.820312 17.050781 9.863281 16.695312 11.261719 L 13.84375 11.261719 L 13.84375 5.035156 L 16.703125 5.035156 C 17.070312 6.414062 18.332031 7.4375 19.828125 7.4375 C 21.609375 7.4375 23.054688 5.988281 23.054688 4.210938 C 23.054688 2.429688 21.609375 0.980469 19.828125 0.980469 C 18.269531 0.980469 16.96875 2.085938 16.664062 3.558594 L 12.367188 3.558594 L 12.367188 11.261719 L 9.371094 11.261719 C 8.992188 9.296875 7.257812 7.808594 5.183594 7.808594 C 2.832031 7.808594 0.917969 9.722656 0.917969 12.074219 C 0.917969 14.425781 2.832031 16.339844 5.183594 16.339844 C 7.308594 16.339844 9.074219 14.777344 9.398438 12.738281 L 12.367188 12.738281 L 12.367188 20.535156 L 16.671875 20.535156 C 16.992188 21.980469 18.28125 23.074219 19.828125 23.074219 C 21.609375 23.074219 23.054688 21.625 23.054688 19.847656 C 23.054688 18.066406 21.609375 16.617188 19.828125 16.617188 C 18.320312 16.617188 17.050781 17.660156 16.695312 19.058594 L 13.84375 19.058594 Z M 19.824219 10.296875 C 20.792969 10.296875 21.574219 11.082031 21.574219 12.050781 C 21.574219 13.019531 20.792969 13.804688 19.824219 13.804688 C 18.855469 13.804688 18.070312 13.019531 18.070312 12.050781 C 18.074219 11.082031 18.859375 10.296875 19.824219 10.296875 Z M 19.824219 2.457031 C 20.792969 2.457031 21.574219 3.242188 21.574219 4.210938 C 21.574219 5.179688 20.792969 5.960938 19.824219 5.960938 C 18.855469 5.960938 18.070312 5.179688 18.070312 4.210938 C 18.074219 3.242188 18.859375 2.457031 19.824219 2.457031 Z M 5.183594 14.863281 C 3.640625 14.863281 2.390625 13.613281 2.390625 12.074219 C 2.390625 10.53125 3.640625 9.285156 5.183594 9.285156 C 6.722656 9.285156 7.972656 10.535156 7.972656 12.074219 C 7.972656 13.613281 6.71875 14.863281 5.183594 14.863281 Z M 19.824219 18.09375 C 20.792969 18.09375 21.574219 18.878906 21.574219 19.84375 C 21.574219 20.8125 20.792969 21.597656 19.824219 21.597656 C 18.855469 21.597656 18.070312 20.8125 18.070312 19.84375 C 18.074219 18.878906 18.859375 18.09375 19.824219 18.09375 Z M 19.824219 18.09375 "/>
</g>
</svg>
